<svg width="18" height="18" viewBox="0 0 18 18" fill="none" xmlns="http://www.w3.org/2000/svg">
<path d="M12.4996 10.9999H11.7096L11.4296 10.7299C12.6296 9.32989 13.2496 7.41989 12.9096 5.38989C12.4396 2.60989 10.1196 0.389893 7.31965 0.0498932C3.08965 -0.470107 -0.470351 3.08989 0.049649 7.31989C0.389649 10.1199 2.60965 12.4399 5.38965 12.9099C7.41965 13.2499 9.32965 12.6299 10.7296 11.4299L10.9996 11.7099V12.4999L15.2496 16.7499C15.6596 17.1599 16.3296 17.1599 16.7396 16.7499C17.1496 16.3399 17.1496 15.6699 16.7396 15.2599L12.4996 10.9999ZM6.49965 10.9999C4.00965 10.9999 1.99965 8.98989 1.99965 6.49989C1.99965 4.00989 4.00965 1.99989 6.49965 1.99989C8.98965 1.99989 10.9996 4.00989 10.9996 6.49989C10.9996 8.98989 8.98965 10.9999 6.49965 10.9999Z" fill="white"/>
</svg>
